<?xml version="1.0" encoding="utf-8"?>
<svg xmlns="http://www.w3.org/2000/svg" xmlns:xlink="http://www.w3.org/1999/xlink" width="400" height="300" viewBox="0 0 1600 1200">
<defs>
  <clipPath id="clip610">
    <rect x="0" y="0" width="1600" height="1200"/>
  </clipPath>
</defs>
<path clip-path="url(#clip610)" d="M0 1200 L1600 1200 L1600 0 L0 0  Z" fill="#ffffff" fill-rule="evenodd" fill-opacity="1"/>
<defs>
  <clipPath id="clip611">
    <rect x="320" y="0" width="1121" height="1121"/>
  </clipPath>
</defs>
<path clip-path="url(#clip610)" d="M208.686 1016.92 L1552.76 1016.92 L1552.76 47.2441 L208.686 47.2441  Z" fill="#ffffff" fill-rule="evenodd" fill-opacity="1"/>
<defs>
  <clipPath id="clip612">
    <rect x="208" y="47" width="1345" height="971"/>
  </clipPath>
</defs>
<polyline clip-path="url(#clip612)" style="stroke:#000000; stroke-linecap:round; stroke-linejoin:round; stroke-width:2; stroke-opacity:0.1; fill:none" points="513.671,1016.92 513.671,47.2441 "/>
<polyline clip-path="url(#clip612)" style="stroke:#000000; stroke-linecap:round; stroke-linejoin:round; stroke-width:2; stroke-opacity:0.1; fill:none" points="847.353,1016.92 847.353,47.2441 "/>
<polyline clip-path="url(#clip612)" style="stroke:#000000; stroke-linecap:round; stroke-linejoin:round; stroke-width:2; stroke-opacity:0.1; fill:none" points="1181.03,1016.92 1181.03,47.2441 "/>
<polyline clip-path="url(#clip612)" style="stroke:#000000; stroke-linecap:round; stroke-linejoin:round; stroke-width:2; stroke-opacity:0.1; fill:none" points="1514.72,1016.92 1514.72,47.2441 "/>
<polyline clip-path="url(#clip610)" style="stroke:#000000; stroke-linecap:round; stroke-linejoin:round; stroke-width:4; stroke-opacity:1; fill:none" points="208.686,1016.92 1552.76,1016.92 "/>
<polyline clip-path="url(#clip610)" style="stroke:#000000; stroke-linecap:round; stroke-linejoin:round; stroke-width:4; stroke-opacity:1; fill:none" points="513.671,1016.92 513.671,998.022 "/>
<polyline clip-path="url(#clip610)" style="stroke:#000000; stroke-linecap:round; stroke-linejoin:round; stroke-width:4; stroke-opacity:1; fill:none" points="847.353,1016.92 847.353,998.022 "/>
<polyline clip-path="url(#clip610)" style="stroke:#000000; stroke-linecap:round; stroke-linejoin:round; stroke-width:4; stroke-opacity:1; fill:none" points="1181.03,1016.92 1181.03,998.022 "/>
<polyline clip-path="url(#clip610)" style="stroke:#000000; stroke-linecap:round; stroke-linejoin:round; stroke-width:4; stroke-opacity:1; fill:none" points="1514.72,1016.92 1514.72,998.022 "/>
<path clip-path="url(#clip610)" d="M503.949 1038.36 L522.305 1038.36 L522.305 1042.3 L508.231 1042.3 L508.231 1050.77 Q509.25 1050.42 510.268 1050.26 Q511.287 1050.07 512.305 1050.07 Q518.092 1050.07 521.472 1053.24 Q524.852 1056.42 524.852 1061.83 Q524.852 1067.41 521.379 1070.51 Q517.907 1073.59 511.588 1073.59 Q509.412 1073.59 507.143 1073.22 Q504.898 1072.85 502.491 1072.11 L502.491 1067.41 Q504.574 1068.54 506.796 1069.1 Q509.018 1069.66 511.495 1069.66 Q515.5 1069.66 517.838 1067.55 Q520.176 1065.44 520.176 1061.83 Q520.176 1058.22 517.838 1056.11 Q515.5 1054.01 511.495 1054.01 Q509.62 1054.01 507.745 1054.42 Q505.893 1054.84 503.949 1055.72 L503.949 1038.36 Z" fill="#000000" fill-rule="nonzero" fill-opacity="1" /><path clip-path="url(#clip610)" d="M822.04 1068.98 L829.679 1068.98 L829.679 1042.62 L821.369 1044.29 L821.369 1040.03 L829.633 1038.36 L834.309 1038.36 L834.309 1068.98 L841.948 1068.98 L841.948 1072.92 L822.04 1072.92 L822.04 1068.98 Z" fill="#000000" fill-rule="nonzero" fill-opacity="1" /><path clip-path="url(#clip610)" d="M861.392 1041.44 Q857.781 1041.44 855.952 1045 Q854.147 1048.54 854.147 1055.67 Q854.147 1062.78 855.952 1066.35 Q857.781 1069.89 861.392 1069.89 Q865.026 1069.89 866.832 1066.35 Q868.661 1062.78 868.661 1055.67 Q868.661 1048.54 866.832 1045 Q865.026 1041.44 861.392 1041.44 M861.392 1037.73 Q867.202 1037.73 870.258 1042.34 Q873.336 1046.92 873.336 1055.67 Q873.336 1064.4 870.258 1069.01 Q867.202 1073.59 861.392 1073.59 Q855.582 1073.59 852.503 1069.01 Q849.448 1064.4 849.448 1055.67 Q849.448 1046.92 852.503 1042.34 Q855.582 1037.73 861.392 1037.73 Z" fill="#000000" fill-rule="nonzero" fill-opacity="1" /><path clip-path="url(#clip610)" d="M1156.22 1068.98 L1163.86 1068.98 L1163.86 1042.62 L1155.55 1044.29 L1155.55 1040.03 L1163.81 1038.36 L1168.49 1038.36 L1168.49 1068.98 L1176.13 1068.98 L1176.13 1072.92 L1156.22 1072.92 L1156.22 1068.98 Z" fill="#000000" fill-rule="nonzero" fill-opacity="1" /><path clip-path="url(#clip610)" d="M1185.62 1038.36 L1203.97 1038.36 L1203.97 1042.3 L1189.9 1042.3 L1189.9 1050.77 Q1190.92 1050.42 1191.94 1050.26 Q1192.96 1050.07 1193.97 1050.07 Q1199.76 1050.07 1203.14 1053.24 Q1206.52 1056.42 1206.52 1061.83 Q1206.52 1067.41 1203.05 1070.51 Q1199.58 1073.59 1193.26 1073.59 Q1191.08 1073.59 1188.81 1073.22 Q1186.57 1072.85 1184.16 1072.11 L1184.16 1067.41 Q1186.24 1068.54 1188.46 1069.1 Q1190.69 1069.66 1193.16 1069.66 Q1197.17 1069.66 1199.51 1067.55 Q1201.84 1065.44 1201.84 1061.83 Q1201.84 1058.22 1199.51 1056.11 Q1197.17 1054.01 1193.16 1054.01 Q1191.29 1054.01 1189.41 1054.42 Q1187.56 1054.84 1185.62 1055.72 L1185.62 1038.36 Z" fill="#000000" fill-rule="nonzero" fill-opacity="1" /><path clip-path="url(#clip610)" d="M1493.49 1068.98 L1509.81 1068.98 L1509.81 1072.92 L1487.86 1072.92 L1487.86 1068.98 Q1490.53 1066.23 1495.11 1061.6 Q1499.72 1056.95 1500.9 1055.61 Q1503.14 1053.08 1504.02 1051.35 Q1504.92 1049.59 1504.92 1047.9 Q1504.92 1045.14 1502.98 1043.41 Q1501.06 1041.67 1497.96 1041.67 Q1495.76 1041.67 1493.3 1042.43 Q1490.87 1043.2 1488.1 1044.75 L1488.1 1040.03 Q1490.92 1038.89 1493.37 1038.31 Q1495.83 1037.73 1497.86 1037.73 Q1503.23 1037.73 1506.43 1040.42 Q1509.62 1043.11 1509.62 1047.6 Q1509.62 1049.73 1508.81 1051.65 Q1508.03 1053.54 1505.92 1056.14 Q1505.34 1056.81 1502.24 1060.03 Q1499.14 1063.22 1493.49 1068.98 Z" fill="#000000" fill-rule="nonzero" fill-opacity="1" /><path clip-path="url(#clip610)" d="M1529.62 1041.44 Q1526.01 1041.44 1524.18 1045 Q1522.38 1048.54 1522.38 1055.67 Q1522.38 1062.78 1524.18 1066.35 Q1526.01 1069.89 1529.62 1069.89 Q1533.26 1069.89 1535.06 1066.35 Q1536.89 1062.78 1536.89 1055.67 Q1536.89 1048.54 1535.06 1045 Q1533.26 1041.44 1529.62 1041.44 M1529.62 1037.73 Q1535.43 1037.73 1538.49 1042.34 Q1541.57 1046.92 1541.57 1055.67 Q1541.57 1064.4 1538.49 1069.01 Q1535.43 1073.59 1529.62 1073.59 Q1523.81 1073.59 1520.73 1069.01 Q1517.68 1064.4 1517.68 1055.67 Q1517.68 1046.92 1520.73 1042.34 Q1523.81 1037.73 1529.62 1037.73 Z" fill="#000000" fill-rule="nonzero" fill-opacity="1" /><path clip-path="url(#clip610)" d="M879.782 1104.01 L879.782 1114.14 L891.845 1114.14 L891.845 1118.69 L879.782 1118.69 L879.782 1138.04 Q879.782 1142.4 880.96 1143.64 Q882.169 1144.88 885.829 1144.88 L891.845 1144.88 L891.845 1149.78 L885.829 1149.78 Q879.05 1149.78 876.472 1147.27 Q873.894 1144.72 873.894 1138.04 L873.894 1118.69 L869.597 1118.69 L869.597 1114.14 L873.894 1114.14 L873.894 1104.01 L879.782 1104.01 Z" fill="#000000" fill-rule="nonzero" fill-opacity="1" /><polyline clip-path="url(#clip612)" style="stroke:#000000; stroke-linecap:round; stroke-linejoin:round; stroke-width:2; stroke-opacity:0.1; fill:none" points="208.686,806.744 1552.76,806.744 "/>
<polyline clip-path="url(#clip612)" style="stroke:#000000; stroke-linecap:round; stroke-linejoin:round; stroke-width:2; stroke-opacity:0.1; fill:none" points="208.686,558.577 1552.76,558.577 "/>
<polyline clip-path="url(#clip612)" style="stroke:#000000; stroke-linecap:round; stroke-linejoin:round; stroke-width:2; stroke-opacity:0.1; fill:none" points="208.686,310.411 1552.76,310.411 "/>
<polyline clip-path="url(#clip612)" style="stroke:#000000; stroke-linecap:round; stroke-linejoin:round; stroke-width:2; stroke-opacity:0.1; fill:none" points="208.686,62.244 1552.76,62.244 "/>
<polyline clip-path="url(#clip610)" style="stroke:#000000; stroke-linecap:round; stroke-linejoin:round; stroke-width:4; stroke-opacity:1; fill:none" points="208.686,1016.92 208.686,47.2441 "/>
<polyline clip-path="url(#clip610)" style="stroke:#000000; stroke-linecap:round; stroke-linejoin:round; stroke-width:4; stroke-opacity:1; fill:none" points="208.686,806.744 227.584,806.744 "/>
<polyline clip-path="url(#clip610)" style="stroke:#000000; stroke-linecap:round; stroke-linejoin:round; stroke-width:4; stroke-opacity:1; fill:none" points="208.686,558.577 227.584,558.577 "/>
<polyline clip-path="url(#clip610)" style="stroke:#000000; stroke-linecap:round; stroke-linejoin:round; stroke-width:4; stroke-opacity:1; fill:none" points="208.686,310.411 227.584,310.411 "/>
<polyline clip-path="url(#clip610)" style="stroke:#000000; stroke-linecap:round; stroke-linejoin:round; stroke-width:4; stroke-opacity:1; fill:none" points="208.686,62.244 227.584,62.244 "/>
<path clip-path="url(#clip610)" d="M124.2 807.195 L153.876 807.195 L153.876 811.13 L124.2 811.13 L124.2 807.195 Z" fill="#000000" fill-rule="nonzero" fill-opacity="1" /><path clip-path="url(#clip610)" d="M164.779 820.088 L172.417 820.088 L172.417 793.723 L164.107 795.389 L164.107 791.13 L172.371 789.464 L177.047 789.464 L177.047 820.088 L184.686 820.088 L184.686 824.024 L164.779 824.024 L164.779 820.088 Z" fill="#000000" fill-rule="nonzero" fill-opacity="1" /><path clip-path="url(#clip610)" d="M172.742 544.376 Q169.13 544.376 167.302 547.941 Q165.496 551.482 165.496 558.612 Q165.496 565.718 167.302 569.283 Q169.13 572.825 172.742 572.825 Q176.376 572.825 178.181 569.283 Q180.01 565.718 180.01 558.612 Q180.01 551.482 178.181 547.941 Q176.376 544.376 172.742 544.376 M172.742 540.672 Q178.552 540.672 181.607 545.278 Q184.686 549.862 184.686 558.612 Q184.686 567.339 181.607 571.945 Q178.552 576.528 172.742 576.528 Q166.931 576.528 163.853 571.945 Q160.797 567.339 160.797 558.612 Q160.797 549.862 163.853 545.278 Q166.931 540.672 172.742 540.672 Z" fill="#000000" fill-rule="nonzero" fill-opacity="1" /><path clip-path="url(#clip610)" d="M164.779 323.755 L172.417 323.755 L172.417 297.39 L164.107 299.056 L164.107 294.797 L172.371 293.131 L177.047 293.131 L177.047 323.755 L184.686 323.755 L184.686 327.691 L164.779 327.691 L164.779 323.755 Z" fill="#000000" fill-rule="nonzero" fill-opacity="1" /><path clip-path="url(#clip610)" d="M168.367 75.5888 L184.686 75.5888 L184.686 79.524 L162.742 79.524 L162.742 75.5888 Q165.404 72.8342 169.987 68.2046 Q174.593 63.5518 175.774 62.2093 Q178.019 59.6861 178.899 57.95 Q179.802 56.1908 179.802 54.501 Q179.802 51.7463 177.857 50.0102 Q175.936 48.2741 172.834 48.2741 Q170.635 48.2741 168.181 49.038 Q165.751 49.8019 162.973 51.3528 L162.973 46.6306 Q165.797 45.4964 168.251 44.9177 Q170.705 44.339 172.742 44.339 Q178.112 44.339 181.306 47.0242 Q184.501 49.7093 184.501 54.2 Q184.501 56.3297 183.691 58.2509 Q182.904 60.1491 180.797 62.7417 Q180.218 63.413 177.117 66.6305 Q174.015 69.825 168.367 75.5888 Z" fill="#000000" fill-rule="nonzero" fill-opacity="1" /><path clip-path="url(#clip610)" d="M63.2504 580.223 L80.6606 580.223 L80.6606 569.91 Q80.6606 564.722 78.5281 562.24 Q76.3638 559.725 71.9396 559.725 Q67.4836 559.725 65.3829 562.24 Q63.2504 564.722 63.2504 569.91 L63.2504 580.223 M43.7077 580.223 L58.0305 580.223 L58.0305 570.706 Q58.0305 565.995 56.28 563.704 Q54.4976 561.38 50.8691 561.38 Q47.2725 561.38 45.4901 563.704 Q43.7077 565.995 43.7077 570.706 L43.7077 580.223 M38.4242 586.652 L38.4242 570.228 Q38.4242 562.876 41.4797 558.898 Q44.5352 554.919 50.1689 554.919 Q54.5294 554.919 57.1075 556.956 Q59.6856 558.993 60.3222 562.94 Q61.3407 558.197 64.5872 555.587 Q67.8019 552.946 72.6398 552.946 Q79.0055 552.946 82.4748 557.274 Q85.9442 561.603 85.9442 569.592 L85.9442 586.652 L38.4242 586.652 Z" fill="#000000" fill-rule="nonzero" fill-opacity="1" /><path clip-path="url(#clip610)" d="M36.4826 528.119 Q43.8032 532.384 50.9646 534.453 Q58.126 536.522 65.4784 536.522 Q72.8308 536.522 80.0559 534.453 Q87.2491 532.353 94.5379 528.119 L94.5379 533.212 Q87.0582 537.986 79.8331 540.373 Q72.608 542.729 65.4784 542.729 Q58.3806 542.729 51.1874 540.373 Q43.9942 538.018 36.4826 533.212 L36.4826 528.119 Z" fill="#000000" fill-rule="nonzero" fill-opacity="1" /><path clip-path="url(#clip610)" d="M40.1747 510.964 L50.2962 510.964 L50.2962 498.901 L54.8477 498.901 L54.8477 510.964 L74.1994 510.964 Q78.5599 510.964 79.8013 509.786 Q81.0426 508.577 81.0426 504.916 L81.0426 498.901 L85.9442 498.901 L85.9442 504.916 Q85.9442 511.696 83.4297 514.274 Q80.8834 516.852 74.1994 516.852 L54.8477 516.852 L54.8477 521.149 L50.2962 521.149 L50.2962 516.852 L40.1747 516.852 L40.1747 510.964 Z" fill="#000000" fill-rule="nonzero" fill-opacity="1" /><path clip-path="url(#clip610)" d="M36.4826 492.121 L36.4826 487.029 Q43.9942 482.254 51.1874 479.899 Q58.3806 477.512 65.4784 477.512 Q72.608 477.512 79.8331 479.899 Q87.0582 482.254 94.5379 487.029 L94.5379 492.121 Q87.2491 487.888 80.0559 485.819 Q72.8308 483.719 65.4784 483.719 Q58.126 483.719 50.9646 485.819 Q43.8032 487.888 36.4826 492.121 Z" fill="#000000" fill-rule="nonzero" fill-opacity="1" /><polyline clip-path="url(#clip612)" style="stroke:#009af9; stroke-linecap:round; stroke-linejoin:round; stroke-width:4; stroke-opacity:1; fill:none" points="246.726,607.769 253.097,758.566 259.469,642.415 265.841,841.731 272.213,640.494 278.585,522.869 284.957,579.572 291.328,677.706 297.7,640.588 304.072,419.05 310.444,885.886 316.816,749.648 323.187,501.598 329.559,577.888 335.931,421.152 342.303,536.942 348.675,187.888 355.046,448.438 361.418,771.373 367.79,654.783 374.162,549.295 380.534,525.323 386.906,729.52 393.277,370.506 399.649,553.157 406.021,645.097 412.393,721.741 418.765,641.655 425.136,470.645 431.508,512.527 437.88,795.15 444.252,639.247 450.624,699.51 456.995,630.219 463.367,561.744 469.739,728.082 476.111,630.187 482.483,672.448 488.855,708.936 495.226,273.062 501.598,566.669 507.97,882.289 514.342,884.666 520.714,565.941 527.085,771.963 533.457,592.119 539.829,616.264 546.201,377.004 552.573,733.401 558.944,718.835 565.316,443.618 571.688,679.077 578.06,583.408 584.432,755.707 590.803,636.726 597.175,780.419 603.547,477.321 609.919,193.664 616.291,741.239 622.663,650.543 629.034,497.206 635.406,720.19 641.778,639.294 648.15,846.342 654.522,697.369 660.893,712.218 667.265,896.042 673.637,443.964 680.009,406.363 686.381,423.089 692.752,433.711 699.124,346.195 705.496,592.203 711.868,459.332 718.24,792.144 724.612,694.726 730.983,657.197 737.355,413.758 743.727,672.063 750.099,443.774 756.471,439.32 762.842,460.246 769.214,678.644 775.586,540.011 781.958,728.016 788.33,592.852 794.701,445.449 801.073,718.489 807.445,603.797 813.817,490.645 820.189,561.344 826.561,610.574 832.932,362.404 839.304,570.669 845.676,845.051 852.048,496.742 858.42,507.435 864.791,585.544 871.163,689.678 877.535,369.328 883.907,606.113 890.279,700.048 896.65,903.558 903.022,453.396 909.394,652.115 915.766,484.403 922.138,472.914 928.51,277.661 934.881,403.816 941.253,955.446 947.625,940.374 953.997,590.912 960.369,545.288 966.74,519.723 973.112,549.808 979.484,449.715 985.856,849.351 992.228,354.364 998.599,480.669 1004.97,482.883 1011.34,691.183 1017.71,770.517 1024.09,757.451 1030.46,617.817 1036.83,631.889 1043.2,761.618 1049.57,586.884 1055.95,711.297 1062.32,571.044 1068.69,554.843 1075.06,619.446 1081.43,517.116 1087.8,678.047 1094.18,364.383 1100.55,543.859 1106.92,556.066 1113.29,501.38 1119.66,573.6 1126.04,725.303 1132.41,475.13 1138.78,561.172 1145.15,393.494 1151.52,475.167 1157.89,284.27 1164.27,706.145 1170.64,989.476 1177.01,715.132 1183.38,748.616 1189.75,413.505 1196.13,679.466 1202.5,739.136 1208.87,717.634 1215.24,848.583 1221.61,451.991 1227.98,513.158 1234.36,323.512 1240.73,639.452 1247.1,821.848 1253.47,500.1 1259.84,932.604 1266.22,821.237 1272.59,426.845 1278.96,666.122 1285.33,640.53 1291.7,591.198 1298.07,728.123 1304.45,745.861 1310.82,74.6877 1317.19,493.424 1323.56,546.678 1329.93,529.229 1336.31,763.036 1342.68,424.757 1349.05,334.036 1355.42,589.132 1361.79,539.009 1368.16,312.473 1374.54,399.524 1380.91,354.35 1387.28,583.882 1393.65,867.033 1400.02,569.097 1406.4,536.966 1412.77,289.016 1419.14,647.507 1425.51,128.196 1431.88,571.03 1438.25,832.196 1444.63,589.786 1451,509.809 1457.37,391.901 1463.74,573.852 1470.11,329.426 1476.49,426.565 1482.86,705.916 1489.23,798.88 1495.6,952.546 1501.97,358.872 1508.34,277.965 1514.72,321.68 "/>
<path clip-path="url(#clip610)" d="M253.488 183.247 L440.326 183.247 L440.326 79.5666 L253.488 79.5666  Z" fill="#ffffff" fill-rule="evenodd" fill-opacity="1"/>
<polyline clip-path="url(#clip610)" style="stroke:#000000; stroke-linecap:round; stroke-linejoin:round; stroke-width:4; stroke-opacity:1; fill:none" points="253.488,183.247 440.326,183.247 440.326,79.5666 253.488,79.5666 253.488,183.247 "/>
<polyline clip-path="url(#clip610)" style="stroke:#009af9; stroke-linecap:round; stroke-linejoin:round; stroke-width:4; stroke-opacity:1; fill:none" points="268.422,131.407 358.027,131.407 "/>
<path clip-path="url(#clip610)" d="M386.804 151.094 Q384.998 155.724 383.285 157.136 Q381.572 158.548 378.702 158.548 L375.299 158.548 L375.299 154.983 L377.799 154.983 Q379.558 154.983 380.531 154.15 Q381.503 153.316 382.683 150.214 L383.447 148.27 L372.961 122.761 L377.475 122.761 L385.577 143.039 L393.679 122.761 L398.193 122.761 L386.804 151.094 Z" fill="#000000" fill-rule="nonzero" fill-opacity="1" /><path clip-path="url(#clip610)" d="M405.484 144.751 L413.123 144.751 L413.123 118.386 L404.813 120.053 L404.813 115.793 L413.077 114.127 L417.753 114.127 L417.753 144.751 L425.391 144.751 L425.391 148.687 L405.484 148.687 L405.484 144.751 Z" fill="#000000" fill-rule="nonzero" fill-opacity="1" /></svg>
