<?xml version="1.0" encoding="utf-8"?>
<svg xmlns="http://www.w3.org/2000/svg" xmlns:xlink="http://www.w3.org/1999/xlink" width="400" height="300" viewBox="0 0 1600 1200">
<defs>
  <clipPath id="clip120">
    <rect x="0" y="0" width="1600" height="1200"/>
  </clipPath>
</defs>
<path clip-path="url(#clip120)" d="M0 1200 L1600 1200 L1600 0 L0 0  Z" fill="#ffffff" fill-rule="evenodd" fill-opacity="1"/>
<defs>
  <clipPath id="clip121">
    <rect x="208" y="47" width="1345" height="971"/>
  </clipPath>
</defs>
<path clip-path="url(#clip120)" d="M208.686 1016.92 L1552.76 1016.92 L1552.76 47.2441 L208.686 47.2441  Z" fill="#ffffff" fill-rule="evenodd" fill-opacity="1"/>
<polyline clip-path="url(#clip121)" style="stroke:#000000; stroke-linecap:round; stroke-linejoin:round; stroke-width:2; stroke-opacity:0.1; fill:none" points="513.671,1016.92 513.671,47.2441 "/>
<polyline clip-path="url(#clip121)" style="stroke:#000000; stroke-linecap:round; stroke-linejoin:round; stroke-width:2; stroke-opacity:0.1; fill:none" points="847.353,1016.92 847.353,47.2441 "/>
<polyline clip-path="url(#clip121)" style="stroke:#000000; stroke-linecap:round; stroke-linejoin:round; stroke-width:2; stroke-opacity:0.1; fill:none" points="1181.03,1016.92 1181.03,47.2441 "/>
<polyline clip-path="url(#clip121)" style="stroke:#000000; stroke-linecap:round; stroke-linejoin:round; stroke-width:2; stroke-opacity:0.1; fill:none" points="1514.72,1016.92 1514.72,47.2441 "/>
<polyline clip-path="url(#clip121)" style="stroke:#000000; stroke-linecap:round; stroke-linejoin:round; stroke-width:2; stroke-opacity:0.1; fill:none" points="208.686,980.109 1552.76,980.109 "/>
<polyline clip-path="url(#clip121)" style="stroke:#000000; stroke-linecap:round; stroke-linejoin:round; stroke-width:2; stroke-opacity:0.1; fill:none" points="208.686,768.098 1552.76,768.098 "/>
<polyline clip-path="url(#clip121)" style="stroke:#000000; stroke-linecap:round; stroke-linejoin:round; stroke-width:2; stroke-opacity:0.1; fill:none" points="208.686,556.087 1552.76,556.087 "/>
<polyline clip-path="url(#clip121)" style="stroke:#000000; stroke-linecap:round; stroke-linejoin:round; stroke-width:2; stroke-opacity:0.1; fill:none" points="208.686,344.075 1552.76,344.075 "/>
<polyline clip-path="url(#clip121)" style="stroke:#000000; stroke-linecap:round; stroke-linejoin:round; stroke-width:2; stroke-opacity:0.1; fill:none" points="208.686,132.064 1552.76,132.064 "/>
<polyline clip-path="url(#clip120)" style="stroke:#000000; stroke-linecap:round; stroke-linejoin:round; stroke-width:4; stroke-opacity:1; fill:none" points="208.686,1016.92 1552.76,1016.92 "/>
<polyline clip-path="url(#clip120)" style="stroke:#000000; stroke-linecap:round; stroke-linejoin:round; stroke-width:4; stroke-opacity:1; fill:none" points="513.671,1016.92 513.671,998.022 "/>
<polyline clip-path="url(#clip120)" style="stroke:#000000; stroke-linecap:round; stroke-linejoin:round; stroke-width:4; stroke-opacity:1; fill:none" points="847.353,1016.92 847.353,998.022 "/>
<polyline clip-path="url(#clip120)" style="stroke:#000000; stroke-linecap:round; stroke-linejoin:round; stroke-width:4; stroke-opacity:1; fill:none" points="1181.03,1016.92 1181.03,998.022 "/>
<polyline clip-path="url(#clip120)" style="stroke:#000000; stroke-linecap:round; stroke-linejoin:round; stroke-width:4; stroke-opacity:1; fill:none" points="1514.72,1016.92 1514.72,998.022 "/>
<path clip-path="url(#clip120)" d="M503.949 1038.36 L522.305 1038.36 L522.305 1042.3 L508.231 1042.3 L508.231 1050.77 Q509.25 1050.42 510.268 1050.26 Q511.287 1050.07 512.305 1050.07 Q518.092 1050.07 521.472 1053.24 Q524.852 1056.42 524.852 1061.83 Q524.852 1067.41 521.379 1070.51 Q517.907 1073.59 511.588 1073.59 Q509.412 1073.59 507.143 1073.22 Q504.898 1072.85 502.491 1072.11 L502.491 1067.41 Q504.574 1068.54 506.796 1069.1 Q509.018 1069.66 511.495 1069.66 Q515.5 1069.66 517.838 1067.55 Q520.176 1065.44 520.176 1061.83 Q520.176 1058.22 517.838 1056.11 Q515.5 1054.01 511.495 1054.01 Q509.62 1054.01 507.745 1054.42 Q505.893 1054.84 503.949 1055.72 L503.949 1038.36 Z" fill="#000000" fill-rule="nonzero" fill-opacity="1" /><path clip-path="url(#clip120)" d="M822.04 1068.98 L829.679 1068.98 L829.679 1042.62 L821.369 1044.29 L821.369 1040.03 L829.633 1038.36 L834.309 1038.36 L834.309 1068.98 L841.948 1068.98 L841.948 1072.92 L822.04 1072.92 L822.04 1068.98 Z" fill="#000000" fill-rule="nonzero" fill-opacity="1" /><path clip-path="url(#clip120)" d="M861.392 1041.44 Q857.781 1041.44 855.952 1045 Q854.147 1048.54 854.147 1055.67 Q854.147 1062.78 855.952 1066.35 Q857.781 1069.89 861.392 1069.89 Q865.026 1069.89 866.832 1066.35 Q868.661 1062.78 868.661 1055.67 Q868.661 1048.54 866.832 1045 Q865.026 1041.44 861.392 1041.44 M861.392 1037.73 Q867.202 1037.73 870.258 1042.34 Q873.336 1046.92 873.336 1055.67 Q873.336 1064.4 870.258 1069.01 Q867.202 1073.59 861.392 1073.59 Q855.582 1073.59 852.503 1069.01 Q849.448 1064.4 849.448 1055.67 Q849.448 1046.92 852.503 1042.34 Q855.582 1037.73 861.392 1037.73 Z" fill="#000000" fill-rule="nonzero" fill-opacity="1" /><path clip-path="url(#clip120)" d="M1156.22 1068.98 L1163.86 1068.98 L1163.86 1042.62 L1155.55 1044.29 L1155.55 1040.03 L1163.81 1038.36 L1168.49 1038.36 L1168.49 1068.98 L1176.13 1068.98 L1176.13 1072.92 L1156.22 1072.92 L1156.22 1068.98 Z" fill="#000000" fill-rule="nonzero" fill-opacity="1" /><path clip-path="url(#clip120)" d="M1185.62 1038.36 L1203.97 1038.36 L1203.97 1042.3 L1189.9 1042.3 L1189.9 1050.77 Q1190.92 1050.42 1191.94 1050.26 Q1192.96 1050.07 1193.97 1050.07 Q1199.76 1050.07 1203.14 1053.24 Q1206.52 1056.42 1206.52 1061.83 Q1206.52 1067.41 1203.05 1070.51 Q1199.58 1073.59 1193.26 1073.59 Q1191.08 1073.59 1188.81 1073.22 Q1186.57 1072.85 1184.16 1072.11 L1184.16 1067.41 Q1186.24 1068.54 1188.46 1069.1 Q1190.69 1069.66 1193.16 1069.66 Q1197.17 1069.66 1199.51 1067.55 Q1201.84 1065.44 1201.84 1061.83 Q1201.84 1058.22 1199.51 1056.11 Q1197.17 1054.01 1193.16 1054.01 Q1191.29 1054.01 1189.41 1054.42 Q1187.56 1054.84 1185.62 1055.72 L1185.62 1038.36 Z" fill="#000000" fill-rule="nonzero" fill-opacity="1" /><path clip-path="url(#clip120)" d="M1493.49 1068.98 L1509.81 1068.98 L1509.81 1072.92 L1487.86 1072.92 L1487.86 1068.98 Q1490.53 1066.23 1495.11 1061.6 Q1499.72 1056.95 1500.9 1055.61 Q1503.14 1053.08 1504.02 1051.35 Q1504.92 1049.59 1504.92 1047.9 Q1504.92 1045.14 1502.98 1043.41 Q1501.06 1041.67 1497.96 1041.67 Q1495.76 1041.67 1493.3 1042.43 Q1490.87 1043.2 1488.1 1044.75 L1488.1 1040.03 Q1490.92 1038.89 1493.37 1038.31 Q1495.83 1037.73 1497.86 1037.73 Q1503.23 1037.73 1506.43 1040.42 Q1509.62 1043.11 1509.62 1047.6 Q1509.62 1049.73 1508.81 1051.65 Q1508.03 1053.54 1505.92 1056.14 Q1505.34 1056.81 1502.24 1060.03 Q1499.14 1063.22 1493.49 1068.98 Z" fill="#000000" fill-rule="nonzero" fill-opacity="1" /><path clip-path="url(#clip120)" d="M1529.62 1041.44 Q1526.01 1041.44 1524.18 1045 Q1522.38 1048.54 1522.38 1055.67 Q1522.38 1062.78 1524.18 1066.35 Q1526.01 1069.89 1529.62 1069.89 Q1533.26 1069.89 1535.06 1066.35 Q1536.89 1062.78 1536.89 1055.67 Q1536.89 1048.54 1535.06 1045 Q1533.26 1041.44 1529.62 1041.44 M1529.62 1037.73 Q1535.43 1037.73 1538.49 1042.34 Q1541.57 1046.92 1541.57 1055.67 Q1541.57 1064.4 1538.49 1069.01 Q1535.43 1073.59 1529.62 1073.59 Q1523.81 1073.59 1520.73 1069.01 Q1517.68 1064.4 1517.68 1055.67 Q1517.68 1046.92 1520.73 1042.34 Q1523.81 1037.73 1529.62 1037.73 Z" fill="#000000" fill-rule="nonzero" fill-opacity="1" /><path clip-path="url(#clip120)" d="M879.782 1104.01 L879.782 1114.14 L891.845 1114.14 L891.845 1118.69 L879.782 1118.69 L879.782 1138.04 Q879.782 1142.4 880.96 1143.64 Q882.169 1144.88 885.829 1144.88 L891.845 1144.88 L891.845 1149.78 L885.829 1149.78 Q879.05 1149.78 876.472 1147.27 Q873.894 1144.72 873.894 1138.04 L873.894 1118.69 L869.597 1118.69 L869.597 1114.14 L873.894 1114.14 L873.894 1104.01 L879.782 1104.01 Z" fill="#000000" fill-rule="nonzero" fill-opacity="1" /><polyline clip-path="url(#clip120)" style="stroke:#000000; stroke-linecap:round; stroke-linejoin:round; stroke-width:4; stroke-opacity:1; fill:none" points="208.686,1016.92 208.686,47.2441 "/>
<polyline clip-path="url(#clip120)" style="stroke:#000000; stroke-linecap:round; stroke-linejoin:round; stroke-width:4; stroke-opacity:1; fill:none" points="208.686,980.109 227.584,980.109 "/>
<polyline clip-path="url(#clip120)" style="stroke:#000000; stroke-linecap:round; stroke-linejoin:round; stroke-width:4; stroke-opacity:1; fill:none" points="208.686,768.098 227.584,768.098 "/>
<polyline clip-path="url(#clip120)" style="stroke:#000000; stroke-linecap:round; stroke-linejoin:round; stroke-width:4; stroke-opacity:1; fill:none" points="208.686,556.087 227.584,556.087 "/>
<polyline clip-path="url(#clip120)" style="stroke:#000000; stroke-linecap:round; stroke-linejoin:round; stroke-width:4; stroke-opacity:1; fill:none" points="208.686,344.075 227.584,344.075 "/>
<polyline clip-path="url(#clip120)" style="stroke:#000000; stroke-linecap:round; stroke-linejoin:round; stroke-width:4; stroke-opacity:1; fill:none" points="208.686,132.064 227.584,132.064 "/>
<path clip-path="url(#clip120)" d="M124.571 980.561 L154.246 980.561 L154.246 984.496 L124.571 984.496 L124.571 980.561 Z" fill="#000000" fill-rule="nonzero" fill-opacity="1" /><path clip-path="url(#clip120)" d="M168.367 993.454 L184.686 993.454 L184.686 997.389 L162.742 997.389 L162.742 993.454 Q165.404 990.7 169.987 986.07 Q174.593 981.417 175.774 980.075 Q178.019 977.552 178.899 975.815 Q179.802 974.056 179.802 972.366 Q179.802 969.612 177.857 967.876 Q175.936 966.14 172.834 966.14 Q170.635 966.14 168.181 966.903 Q165.751 967.667 162.973 969.218 L162.973 964.496 Q165.797 963.362 168.251 962.783 Q170.705 962.204 172.742 962.204 Q178.112 962.204 181.306 964.89 Q184.501 967.575 184.501 972.066 Q184.501 974.195 183.691 976.116 Q182.904 978.015 180.797 980.607 Q180.218 981.278 177.117 984.496 Q174.015 987.69 168.367 993.454 Z" fill="#000000" fill-rule="nonzero" fill-opacity="1" /><path clip-path="url(#clip120)" d="M124.2 768.549 L153.876 768.549 L153.876 772.485 L124.2 772.485 L124.2 768.549 Z" fill="#000000" fill-rule="nonzero" fill-opacity="1" /><path clip-path="url(#clip120)" d="M164.779 781.443 L172.417 781.443 L172.417 755.077 L164.107 756.744 L164.107 752.485 L172.371 750.818 L177.047 750.818 L177.047 781.443 L184.686 781.443 L184.686 785.378 L164.779 785.378 L164.779 781.443 Z" fill="#000000" fill-rule="nonzero" fill-opacity="1" /><path clip-path="url(#clip120)" d="M172.742 541.885 Q169.13 541.885 167.302 545.45 Q165.496 548.992 165.496 556.121 Q165.496 563.228 167.302 566.793 Q169.13 570.334 172.742 570.334 Q176.376 570.334 178.181 566.793 Q180.01 563.228 180.01 556.121 Q180.01 548.992 178.181 545.45 Q176.376 541.885 172.742 541.885 M172.742 538.182 Q178.552 538.182 181.607 542.788 Q184.686 547.371 184.686 556.121 Q184.686 564.848 181.607 569.455 Q178.552 574.038 172.742 574.038 Q166.931 574.038 163.853 569.455 Q160.797 564.848 160.797 556.121 Q160.797 547.371 163.853 542.788 Q166.931 538.182 172.742 538.182 Z" fill="#000000" fill-rule="nonzero" fill-opacity="1" /><path clip-path="url(#clip120)" d="M164.779 357.42 L172.417 357.42 L172.417 331.055 L164.107 332.721 L164.107 328.462 L172.371 326.795 L177.047 326.795 L177.047 357.42 L184.686 357.42 L184.686 361.355 L164.779 361.355 L164.779 357.42 Z" fill="#000000" fill-rule="nonzero" fill-opacity="1" /><path clip-path="url(#clip120)" d="M168.367 145.409 L184.686 145.409 L184.686 149.344 L162.742 149.344 L162.742 145.409 Q165.404 142.654 169.987 138.025 Q174.593 133.372 175.774 132.029 Q178.019 129.506 178.899 127.77 Q179.802 126.011 179.802 124.321 Q179.802 121.566 177.857 119.83 Q175.936 118.094 172.834 118.094 Q170.635 118.094 168.181 118.858 Q165.751 119.622 162.973 121.173 L162.973 116.451 Q165.797 115.316 168.251 114.738 Q170.705 114.159 172.742 114.159 Q178.112 114.159 181.306 116.844 Q184.501 119.529 184.501 124.02 Q184.501 126.15 183.691 128.071 Q182.904 129.969 180.797 132.562 Q180.218 133.233 177.117 136.45 Q174.015 139.645 168.367 145.409 Z" fill="#000000" fill-rule="nonzero" fill-opacity="1" /><path clip-path="url(#clip120)" d="M63.2504 580.223 L80.6606 580.223 L80.6606 569.91 Q80.6606 564.722 78.5281 562.24 Q76.3638 559.725 71.9396 559.725 Q67.4836 559.725 65.3829 562.24 Q63.2504 564.722 63.2504 569.91 L63.2504 580.223 M43.7077 580.223 L58.0305 580.223 L58.0305 570.706 Q58.0305 565.995 56.28 563.704 Q54.4976 561.38 50.8691 561.38 Q47.2725 561.38 45.4901 563.704 Q43.7077 565.995 43.7077 570.706 L43.7077 580.223 M38.4242 586.652 L38.4242 570.228 Q38.4242 562.876 41.4797 558.898 Q44.5352 554.919 50.1689 554.919 Q54.5294 554.919 57.1075 556.956 Q59.6856 558.993 60.3222 562.94 Q61.3407 558.197 64.5872 555.587 Q67.8019 552.946 72.6398 552.946 Q79.0055 552.946 82.4748 557.274 Q85.9442 561.603 85.9442 569.592 L85.9442 586.652 L38.4242 586.652 Z" fill="#000000" fill-rule="nonzero" fill-opacity="1" /><path clip-path="url(#clip120)" d="M36.4826 528.119 Q43.8032 532.384 50.9646 534.453 Q58.126 536.522 65.4784 536.522 Q72.8308 536.522 80.0559 534.453 Q87.2491 532.353 94.5379 528.119 L94.5379 533.212 Q87.0582 537.986 79.8331 540.373 Q72.608 542.729 65.4784 542.729 Q58.3806 542.729 51.1874 540.373 Q43.9942 538.018 36.4826 533.212 L36.4826 528.119 Z" fill="#000000" fill-rule="nonzero" fill-opacity="1" /><path clip-path="url(#clip120)" d="M40.1747 510.964 L50.2962 510.964 L50.2962 498.901 L54.8477 498.901 L54.8477 510.964 L74.1994 510.964 Q78.5599 510.964 79.8013 509.786 Q81.0426 508.577 81.0426 504.916 L81.0426 498.901 L85.9442 498.901 L85.9442 504.916 Q85.9442 511.696 83.4297 514.274 Q80.8834 516.852 74.1994 516.852 L54.8477 516.852 L54.8477 521.149 L50.2962 521.149 L50.2962 516.852 L40.1747 516.852 L40.1747 510.964 Z" fill="#000000" fill-rule="nonzero" fill-opacity="1" /><path clip-path="url(#clip120)" d="M36.4826 492.121 L36.4826 487.029 Q43.9942 482.254 51.1874 479.899 Q58.3806 477.512 65.4784 477.512 Q72.608 477.512 79.8331 479.899 Q87.0582 482.254 94.5379 487.029 L94.5379 492.121 Q87.2491 487.888 80.0559 485.819 Q72.8308 483.719 65.4784 483.719 Q58.126 483.719 50.9646 485.819 Q43.8032 487.888 36.4826 492.121 Z" fill="#000000" fill-rule="nonzero" fill-opacity="1" /><polyline clip-path="url(#clip121)" style="stroke:#009af9; stroke-linecap:round; stroke-linejoin:round; stroke-width:4; stroke-opacity:1; fill:none" points="246.726,584.244 253.097,641.727 259.469,652.785 265.841,504.792 272.213,562.921 278.585,539.643 284.957,372.752 291.328,509.927 297.7,826.159 304.072,405.988 310.444,464.77 316.816,521.446 323.187,608.742 329.559,485.995 335.931,501.439 342.303,517.453 348.675,685.213 355.046,727.113 361.418,304.334 367.79,599.244 374.162,702.487 380.534,819.296 386.906,607.805 393.277,505.862 399.649,808.995 406.021,524.319 412.393,595.131 418.765,309.228 425.136,643.415 431.508,451.779 437.88,635.68 444.252,634.199 450.624,527.199 456.995,707.791 463.367,554.609 469.739,199.074 476.111,275.546 482.483,378.408 488.855,617.607 495.226,844.086 501.598,710.615 507.97,567.829 514.342,298.251 520.714,482.134 527.085,334.515 533.457,537.782 539.829,577.232 546.201,729.371 552.573,754.912 558.944,405.103 565.316,388.992 571.688,457.578 578.06,305.31 584.432,665.036 590.803,749.059 597.175,542.141 603.547,624.307 609.919,366.049 616.291,602.81 622.663,580.368 629.034,770.984 635.406,260.437 641.778,415.645 648.15,636.887 654.522,565.81 660.893,610.38 667.265,296.879 673.637,424.778 680.009,530.355 686.381,575.553 692.752,592.48 699.124,682.898 705.496,455.748 711.868,528.739 718.24,544.79 724.612,481.501 730.983,392.817 737.355,680.768 743.727,670 750.099,542.573 756.471,530.075 762.842,664.632 769.214,539.506 775.586,525.693 781.958,653.437 788.33,635.882 794.701,672.947 801.073,524.344 807.445,551.282 813.817,413.25 820.189,599.516 826.561,630.17 832.932,417.269 839.304,266.277 845.676,572.224 852.048,374.405 858.42,466.524 864.791,687.059 871.163,729.863 877.535,638.949 883.907,330.688 890.279,758.437 896.65,812.633 903.022,428.93 909.394,526.869 915.766,636.385 922.138,620.809 928.51,501.617 934.881,662.477 941.253,710.104 947.625,763.593 953.997,861.857 960.369,520.602 966.74,513.668 973.112,451.862 979.484,716.511 985.856,503.661 992.228,644.2 998.599,584.832 1004.97,311.12 1011.34,359.953 1017.71,361.104 1024.09,396.474 1030.46,570.718 1036.83,744.524 1043.2,851.285 1049.57,491.943 1055.95,293.197 1062.32,367.262 1068.69,587.127 1075.06,406.164 1081.43,394.453 1087.8,479.829 1094.18,325.404 1100.55,704.399 1106.92,758.035 1113.29,535.458 1119.66,609.085 1126.04,696.452 1132.41,588.762 1138.78,536.343 1145.15,466.803 1151.52,536.625 1157.89,497.977 1164.27,755.263 1170.64,486.622 1177.01,804.758 1183.38,609.144 1189.75,598.522 1196.13,556.527 1202.5,936.244 1208.87,600.51 1215.24,507.918 1221.61,767.339 1227.98,542.235 1234.36,989.476 1240.73,553.164 1247.1,480.518 1253.47,642.325 1259.84,675.505 1266.22,716.636 1272.59,650.021 1278.96,557.522 1285.33,459.869 1291.7,200.88 1298.07,628.862 1304.45,74.6877 1310.82,446.893 1317.19,466.186 1323.56,582.999 1329.93,488.332 1336.31,682.583 1342.68,605.199 1349.05,721.175 1355.42,779.515 1361.79,953.38 1368.16,808.592 1374.54,554.021 1380.91,558.234 1387.28,769.269 1393.65,719.138 1400.02,517.347 1406.4,440.946 1412.77,842.341 1419.14,351.438 1425.51,535.787 1431.88,559.497 1438.25,767.623 1444.63,845.653 1451,611.863 1457.37,560.279 1463.74,574.11 1470.11,805.262 1476.49,486.094 1482.86,688.853 1489.23,675.504 1495.6,723.243 1501.97,554.156 1508.34,368.237 1514.72,618.541 "/>
<path clip-path="url(#clip120)" d="M253.488 183.247 L440.326 183.247 L440.326 79.5666 L253.488 79.5666  Z" fill="#ffffff" fill-rule="evenodd" fill-opacity="1"/>
<polyline clip-path="url(#clip120)" style="stroke:#000000; stroke-linecap:round; stroke-linejoin:round; stroke-width:4; stroke-opacity:1; fill:none" points="253.488,183.247 440.326,183.247 440.326,79.5666 253.488,79.5666 253.488,183.247 "/>
<polyline clip-path="url(#clip120)" style="stroke:#009af9; stroke-linecap:round; stroke-linejoin:round; stroke-width:4; stroke-opacity:1; fill:none" points="268.422,131.407 358.027,131.407 "/>
<path clip-path="url(#clip120)" d="M386.804 151.094 Q384.998 155.724 383.285 157.136 Q381.572 158.548 378.702 158.548 L375.299 158.548 L375.299 154.983 L377.799 154.983 Q379.558 154.983 380.531 154.15 Q381.503 153.316 382.683 150.214 L383.447 148.27 L372.961 122.761 L377.475 122.761 L385.577 143.039 L393.679 122.761 L398.193 122.761 L386.804 151.094 Z" fill="#000000" fill-rule="nonzero" fill-opacity="1" /><path clip-path="url(#clip120)" d="M405.484 144.751 L413.123 144.751 L413.123 118.386 L404.813 120.053 L404.813 115.793 L413.077 114.127 L417.753 114.127 L417.753 144.751 L425.391 144.751 L425.391 148.687 L405.484 148.687 L405.484 144.751 Z" fill="#000000" fill-rule="nonzero" fill-opacity="1" /></svg>
