<svg width="994" height="981" xmlns="http://www.w3.org/2000/svg" xmlns:xlink="http://www.w3.org/1999/xlink" xml:space="preserve" overflow="hidden"><g transform="translate(-980 -405)"><path d="M1292.2 602.294C1287.13 572.488 1328.24 540.627 1384.04 531.129 1439.83 521.631 1489.17 538.094 1494.24 567.899 1499.32 597.705 1458.2 629.567 1402.41 639.065 1346.62 648.563 1297.28 632.1 1292.2 602.294Z" fill="#37822E" fill-rule="evenodd"/><path d="M1290.85 597.078 1362.21 405.665 1492.89 562.683Z" fill="#37822E" fill-rule="evenodd"/><path d="M1451.54 1143.46C1449.75 1132.95 1464.24 1121.72 1483.91 1118.37 1503.58 1115.02 1520.98 1120.83 1522.76 1131.34 1524.55 1141.84 1510.06 1153.08 1490.39 1156.42 1470.72 1159.77 1453.33 1153.97 1451.54 1143.46Z" fill="#37822E" fill-rule="evenodd"/><path d="M1362.45 620.157 1433.68 608.032 1522.13 1127.58 1450.9 1139.71Z" fill="#37822E" fill-rule="evenodd"/><path d="M1253.03 889.305C1235.71 787.573 1304.14 691.064 1405.87 673.745 1507.61 656.427 1604.12 724.858 1621.43 826.59 1638.75 928.322 1570.32 1024.83 1468.59 1042.15 1366.86 1059.47 1270.35 991.037 1253.03 889.305Z" stroke="#37822E" stroke-width="20.625" stroke-miterlimit="8" fill="#6DAA5E" fill-rule="evenodd"/><path d="M1371.69 694.446C1369.8 683.328 1385.13 671.444 1405.94 667.902 1426.75 664.359 1445.16 670.5 1447.05 681.617 1448.94 692.734 1433.6 704.618 1412.79 708.161 1391.98 711.703 1373.58 705.563 1371.69 694.446Z" fill="#37822E" fill-rule="evenodd"/><path d="M1689.47 719.047C1693.69 686.366 1746.7 666.281 1807.88 674.186 1869.05 682.09 1915.22 714.992 1911 747.673 1906.78 780.354 1853.76 800.439 1792.59 792.534 1731.41 784.63 1685.24 751.728 1689.47 719.047Z" fill="#3A5AB4" fill-rule="evenodd"/><path d="M1689.72 713.179 1825.17 536.469 1911.25 741.804Z" fill="#3A5AB4" fill-rule="evenodd"/><path d="M1682.84 1333.87C1684.32 1322.35 1703.01 1315.27 1724.58 1318.05 1746.15 1320.84 1762.42 1332.44 1760.93 1343.96 1759.45 1355.48 1740.76 1362.56 1719.19 1359.78 1697.62 1356.99 1681.35 1345.39 1682.84 1333.87Z" fill="#3A5AB4" fill-rule="evenodd"/><path d="M1756.98 760.08 1835.08 770.172 1761.47 1339.84 1683.37 1329.75Z" fill="#3A5AB4" fill-rule="evenodd"/><path d="M1557.06 1005.66C1571.47 894.111 1673.58 815.369 1785.13 829.782 1896.68 844.195 1975.42 946.306 1961 1057.85 1946.59 1169.4 1844.48 1248.14 1732.93 1233.73 1621.39 1219.31 1542.65 1117.2 1557.06 1005.66Z" stroke="#3A5AB4" stroke-width="20.625" stroke-miterlimit="8" fill="#6C87DA" fill-rule="evenodd"/><path d="M1742.9 840.447C1744.47 828.257 1764.25 820.766 1787.06 823.714 1809.88 826.662 1827.1 838.934 1825.53 851.124 1823.95 863.313 1804.18 870.805 1781.36 867.857 1758.54 864.908 1741.32 852.636 1742.9 840.447Z" fill="#3A5AB4" fill-rule="evenodd"/><path d="M983.736 873.88C968.829 844.911 1000.71 798.806 1054.93 770.903 1109.16 743.001 1165.21 743.866 1180.11 772.836 1195.02 801.806 1163.14 847.91 1108.91 875.813 1054.69 903.716 998.642 902.85 983.736 873.88Z" fill="#A63333" fill-rule="evenodd"/><path d="M980.647 868.962 991.708 649.109 1177.02 767.917Z" fill="#A63333" fill-rule="evenodd"/><path d="M1323.43 1378.01C1318.17 1367.8 1329.41 1351.55 1348.53 1341.71 1367.65 1331.87 1387.4 1332.18 1392.66 1342.39 1397.91 1352.61 1386.68 1368.86 1367.56 1378.7 1348.44 1388.53 1328.68 1388.23 1323.43 1378.01Z" fill="#A63333" fill-rule="evenodd"/><path d="M1061.72 869.385 1130.95 833.763 1390.78 1338.74 1321.55 1374.37Z" fill="#A63333" fill-rule="evenodd"/><path d="M1036.84 1181.47C985.958 1082.59 1024.87 961.193 1123.75 910.315 1222.63 859.437 1344.03 898.35 1394.91 997.229 1445.79 1096.11 1406.88 1217.51 1308 1268.39 1209.12 1319.27 1087.71 1280.35 1036.84 1181.47Z" stroke="#A63333" stroke-width="20.625" stroke-miterlimit="8" fill="#D46763" fill-rule="evenodd"/><path d="M1095.36 942.699C1089.8 931.893 1101.69 914.697 1121.92 904.29 1142.15 893.882 1163.05 894.205 1168.61 905.01 1174.17 915.816 1162.28 933.012 1142.05 943.419 1121.83 953.827 1100.92 953.504 1095.36 942.699Z" fill="#A63333" fill-rule="evenodd"/></g></svg>