<svg width="1860" height="1332" xmlns="http://www.w3.org/2000/svg" xmlns:xlink="http://www.w3.org/1999/xlink" xml:space="preserve" overflow="hidden"><g transform="translate(-573 -405)"><path d="M1292.2 602.294C1287.13 572.488 1328.24 540.627 1384.04 531.129 1439.83 521.631 1489.17 538.094 1494.24 567.899 1499.32 597.705 1458.2 629.567 1402.41 639.065 1346.62 648.563 1297.28 632.1 1292.2 602.294Z" fill="#37822E" fill-rule="evenodd"/><path d="M1290.85 597.078 1362.21 405.665 1492.89 562.683Z" fill="#37822E" fill-rule="evenodd"/><path d="M1451.54 1143.46C1449.75 1132.95 1464.24 1121.72 1483.91 1118.37 1503.58 1115.02 1520.98 1120.83 1522.76 1131.34 1524.55 1141.84 1510.06 1153.08 1490.39 1156.42 1470.72 1159.77 1453.33 1153.97 1451.54 1143.46Z" fill="#37822E" fill-rule="evenodd"/><path d="M1362.45 620.157 1433.68 608.032 1522.13 1127.58 1450.9 1139.71Z" fill="#37822E" fill-rule="evenodd"/><path d="M1253.03 889.305C1235.71 787.573 1304.14 691.064 1405.87 673.745 1507.61 656.427 1604.12 724.858 1621.43 826.59 1638.75 928.322 1570.32 1024.83 1468.59 1042.15 1366.86 1059.47 1270.35 991.037 1253.03 889.305Z" stroke="#37822E" stroke-width="20.625" stroke-miterlimit="8" fill="#6DAA5E" fill-rule="evenodd"/><path d="M1371.69 694.446C1369.8 683.328 1385.13 671.444 1405.94 667.902 1426.75 664.359 1445.16 670.5 1447.05 681.617 1448.94 692.734 1433.6 704.618 1412.79 708.161 1391.98 711.703 1373.58 705.563 1371.69 694.446Z" fill="#37822E" fill-rule="evenodd"/><path d="M1689.47 719.047C1693.69 686.366 1746.7 666.281 1807.88 674.186 1869.05 682.09 1915.22 714.992 1911 747.673 1906.78 780.354 1853.76 800.439 1792.59 792.534 1731.41 784.63 1685.24 751.728 1689.47 719.047Z" fill="#3A5AB4" fill-rule="evenodd"/><path d="M1689.72 713.179 1825.17 536.469 1911.25 741.804Z" fill="#3A5AB4" fill-rule="evenodd"/><path d="M1682.84 1333.87C1684.32 1322.35 1703.01 1315.27 1724.58 1318.05 1746.15 1320.84 1762.42 1332.44 1760.93 1343.96 1759.45 1355.48 1740.76 1362.56 1719.19 1359.78 1697.62 1356.99 1681.35 1345.39 1682.84 1333.87Z" fill="#3A5AB4" fill-rule="evenodd"/><path d="M1756.98 760.08 1835.08 770.172 1761.47 1339.84 1683.37 1329.75Z" fill="#3A5AB4" fill-rule="evenodd"/><path d="M1557.06 1005.66C1571.47 894.111 1673.58 815.369 1785.13 829.782 1896.68 844.195 1975.42 946.306 1961 1057.85 1946.59 1169.4 1844.48 1248.14 1732.93 1233.73 1621.39 1219.31 1542.65 1117.2 1557.06 1005.66Z" stroke="#3A5AB4" stroke-width="20.625" stroke-miterlimit="8" fill="#6C87DA" fill-rule="evenodd"/><path d="M1742.9 840.447C1744.47 828.257 1764.25 820.766 1787.06 823.714 1809.88 826.662 1827.1 838.934 1825.53 851.124 1823.95 863.313 1804.18 870.805 1781.36 867.857 1758.54 864.908 1741.32 852.636 1742.9 840.447Z" fill="#3A5AB4" fill-rule="evenodd"/><path d="M983.736 873.88C968.829 844.911 1000.71 798.806 1054.93 770.903 1109.16 743.001 1165.21 743.866 1180.11 772.836 1195.02 801.806 1163.14 847.91 1108.91 875.813 1054.69 903.716 998.642 902.85 983.736 873.88Z" fill="#A63333" fill-rule="evenodd"/><path d="M980.647 868.962 991.708 649.109 1177.02 767.917Z" fill="#A63333" fill-rule="evenodd"/><path d="M1323.43 1378.01C1318.17 1367.8 1329.41 1351.55 1348.53 1341.71 1367.65 1331.87 1387.4 1332.18 1392.66 1342.39 1397.91 1352.61 1386.68 1368.86 1367.56 1378.7 1348.44 1388.53 1328.68 1388.23 1323.43 1378.01Z" fill="#A63333" fill-rule="evenodd"/><path d="M1061.72 869.385 1130.95 833.763 1390.78 1338.74 1321.55 1374.37Z" fill="#A63333" fill-rule="evenodd"/><path d="M1036.84 1181.47C985.958 1082.59 1024.87 961.193 1123.75 910.315 1222.63 859.437 1344.03 898.35 1394.91 997.229 1445.79 1096.11 1406.88 1217.51 1308 1268.39 1209.12 1319.27 1087.71 1280.35 1036.84 1181.47Z" stroke="#A63333" stroke-width="20.625" stroke-miterlimit="8" fill="#D46763" fill-rule="evenodd"/><path d="M1095.36 942.699C1089.8 931.893 1101.69 914.697 1121.92 904.29 1142.15 893.882 1163.05 894.205 1168.61 905.01 1174.17 915.816 1162.28 933.012 1142.05 943.419 1121.83 953.827 1100.92 953.504 1095.36 942.699Z" fill="#A63333" fill-rule="evenodd"/><path d="M1765.74 1599.3C1772.54 1599.3 1778.02 1601.29 1782.18 1605.28 1786.35 1609.26 1788.43 1614.52 1788.43 1621.06 1788.43 1627.14 1786.35 1632.31 1782.18 1636.56 1778.02 1640.82 1772.54 1642.94 1765.74 1642.94 1758.93 1642.94 1753.43 1640.82 1749.22 1636.56 1745.01 1632.31 1742.91 1627.14 1742.91 1621.06 1742.91 1614.52 1745.01 1609.26 1749.22 1605.28 1753.43 1601.29 1758.93 1599.3 1765.74 1599.3ZM1293.64 1535.39C1285.67 1535.39 1278.71 1537.65 1272.76 1542.17 1266.8 1546.69 1261.99 1551.72 1258.32 1557.27L1250.67 1595.27C1252.82 1601.18 1256.55 1606.17 1261.88 1610.25 1267.21 1614.32 1273.36 1616.36 1280.34 1616.36 1288.4 1616.36 1295.03 1613.2 1300.22 1606.89 1305.41 1600.58 1309.35 1591.38 1312.03 1579.29 1315.17 1564.43 1314.99 1553.4 1311.5 1546.2 1308.01 1538.99 1302.05 1535.39 1293.64 1535.39ZM1849.21 1510.01 1884.53 1510.01 1855.79 1645.49C1852.93 1658.92 1847.36 1669.57 1839.07 1677.45 1830.79 1685.33 1818.11 1689.27 1801.01 1689.27L1786.24 1689.27 1792.14 1661.07 1800.07 1661.07C1805.89 1661.07 1810.47 1659.68 1813.83 1656.91 1817.19 1654.13 1819.54 1649.7 1820.88 1643.61ZM1395.08 1510.01 1430.53 1510.01 1402.73 1641.06 1367.28 1641.06ZM1306.93 1508.4C1317.4 1508.4 1326.29 1511.26 1333.59 1516.99 1340.88 1522.72 1345.85 1531.13 1348.49 1542.23 1351.13 1553.33 1350.75 1566.9 1347.35 1582.92 1342.96 1603.33 1335.22 1618.53 1324.12 1628.51 1313.02 1638.49 1299.99 1643.48 1285.04 1643.48 1275.91 1643.48 1267.9 1641.69 1261.01 1638.11 1254.12 1634.53 1248.61 1629.47 1244.49 1622.93L1230.26 1689.27 1194.94 1689.27 1233.21 1510.01 1267.18 1510.01 1264.63 1528.4C1269.56 1522.58 1275.4 1517.8 1282.16 1514.04 1288.92 1510.28 1297.17 1508.4 1306.93 1508.4ZM1543.01 1508.13C1551.87 1508.13 1559.43 1510.3 1565.7 1514.64 1571.96 1518.98 1576.35 1525.2 1578.86 1533.3 1581.36 1541.41 1581.41 1551.14 1578.99 1562.51L1562.48 1641.06 1527.03 1641.06 1543.81 1562.38C1545.6 1554.05 1545.15 1547.67 1542.47 1543.24 1539.78 1538.81 1535.26 1536.59 1528.91 1536.59 1522.19 1536.59 1515.99 1538.25 1510.31 1541.56 1504.62 1544.88 1499.32 1548.9 1494.4 1553.65L1475.6 1641.06 1440.28 1641.06 1468.08 1510.01 1502.59 1510.01 1498.96 1529.21C1504.6 1523.57 1510.87 1518.65 1517.76 1514.44 1524.65 1510.23 1533.07 1508.13 1543.01 1508.13ZM1672.39 1507.86C1683.22 1507.86 1692.76 1509.52 1700.99 1512.83 1709.23 1516.14 1715.6 1520.93 1720.13 1527.2 1724.65 1533.46 1726.68 1540.94 1726.24 1549.62L1693.07 1549.62C1693.25 1543.8 1691.5 1539.3 1687.83 1536.12 1684.16 1532.95 1678.52 1531.36 1670.91 1531.36 1665.72 1531.36 1661.49 1532.14 1658.22 1533.71 1654.96 1535.27 1652.96 1537.71 1652.25 1541.03 1651.35 1545.32 1653.19 1548.88 1657.75 1551.7 1662.32 1554.52 1670.78 1558.03 1683.13 1562.24 1697.28 1566.99 1706.92 1573.01 1712.07 1580.3 1717.22 1587.6 1718.89 1596.62 1717.1 1607.36 1715.22 1618.73 1709.56 1627.59 1700.12 1633.95 1690.67 1640.3 1676.87 1643.48 1658.69 1643.48 1647.32 1643.48 1637.21 1641.94 1628.35 1638.85 1619.48 1635.76 1612.66 1630.99 1607.87 1624.55 1603.08 1618.1 1600.91 1609.95 1601.36 1600.11L1634.52 1600.11C1634.43 1607.36 1636.67 1612.51 1641.24 1615.55 1645.8 1618.59 1651.98 1620.12 1659.77 1620.12 1666.03 1620.12 1671.02 1618.97 1674.74 1616.69 1678.45 1614.41 1680.72 1611.34 1681.52 1607.49 1682.06 1604.27 1681.68 1601.5 1680.38 1599.17 1679.08 1596.84 1676.4 1594.6 1672.32 1592.45 1668.25 1590.31 1662.41 1587.98 1654.8 1585.47 1639.94 1580.46 1629.4 1574.21 1623.18 1566.74 1616.96 1559.27 1614.92 1549.89 1617.07 1538.61 1619.13 1528.58 1625.06 1520.95 1634.86 1515.71 1644.66 1510.48 1657.17 1507.86 1672.39 1507.86ZM1931.34 1460.33 1966.93 1460.33 1938.46 1593.26C1936.94 1600.24 1937.05 1605.32 1938.8 1608.5 1940.54 1611.68 1944.41 1613.27 1950.41 1613.27L1958.33 1613.27 1952.43 1641.06 1943.56 1641.06C1930.67 1641.06 1920.91 1639.38 1914.29 1636.03 1907.67 1632.67 1903.59 1627.37 1902.07 1620.12 1900.55 1612.86 1901 1603.42 1903.41 1591.78ZM1872.85 1458.18C1879.29 1458.18 1884.24 1459.86 1887.68 1463.21 1891.13 1466.57 1892.85 1470.66 1892.85 1475.5 1892.85 1480.24 1891.13 1484.34 1887.68 1487.78 1884.24 1491.23 1879.29 1492.95 1872.85 1492.95 1866.31 1492.95 1861.3 1491.23 1857.81 1487.78 1854.32 1484.34 1852.57 1480.24 1852.57 1475.5 1852.57 1470.66 1854.32 1466.57 1857.81 1463.21 1861.3 1459.86 1866.31 1458.18 1872.85 1458.18ZM1418.98 1458.18C1425.43 1458.18 1430.35 1459.86 1433.75 1463.21 1437.15 1466.57 1438.85 1470.66 1438.85 1475.5 1438.85 1480.24 1437.15 1484.34 1433.75 1487.78 1430.35 1491.23 1425.43 1492.95 1418.98 1492.95 1412.45 1492.95 1407.43 1491.23 1403.94 1487.78 1400.45 1484.34 1398.7 1480.24 1398.7 1475.5 1398.7 1470.66 1400.45 1466.57 1403.94 1463.21 1407.43 1459.86 1412.45 1458.18 1418.98 1458.18ZM1133.4 1457.77C1145.75 1457.86 1156.76 1459.77 1166.43 1463.48 1176.1 1467.2 1183.73 1472.9 1189.32 1480.6 1194.92 1488.3 1197.76 1498.19 1197.85 1510.28L1159.31 1510.28C1159.04 1502.67 1156.31 1496.87 1151.12 1492.89 1145.93 1488.9 1139.08 1486.91 1130.58 1486.91 1123.15 1486.91 1116.79 1488.3 1111.51 1491.07 1106.23 1493.85 1103.18 1498.1 1102.38 1503.83 1101.93 1507.41 1102.49 1510.72 1104.06 1513.77 1105.62 1516.81 1109 1519.85 1114.2 1522.9 1119.39 1525.94 1127.22 1529.25 1137.69 1532.83 1149.42 1536.77 1159.11 1541.5 1166.77 1547 1174.42 1552.51 1179.83 1559.2 1183.01 1567.08 1186.19 1574.95 1186.88 1584.53 1185.09 1595.81 1183.39 1607 1179.28 1616.09 1172.74 1623.07 1166.21 1630.05 1157.77 1635.18 1147.43 1638.44 1137.09 1641.71 1125.3 1643.35 1112.05 1643.35 1098.26 1643.35 1086.27 1641.33 1076.06 1637.3 1065.86 1633.27 1057.98 1627.03 1052.43 1618.57 1046.88 1610.11 1044.1 1599.17 1044.1 1585.74L1082.77 1585.74C1083.04 1595.32 1085.82 1602.28 1091.1 1606.62 1096.38 1610.96 1104.35 1613.13 1115 1613.13 1124.04 1613.13 1131.34 1611.59 1136.89 1608.5 1142.44 1605.41 1145.66 1600.64 1146.56 1594.2 1147.18 1589.46 1146.62 1585.27 1144.88 1581.64 1143.13 1578.02 1139.6 1574.62 1134.27 1571.44 1128.94 1568.26 1121.22 1565.02 1111.11 1561.7 1101.17 1558.39 1092.38 1554.05 1084.72 1548.68 1077.07 1543.31 1071.38 1536.59 1067.67 1528.54 1063.95 1520.48 1062.99 1510.86 1064.78 1499.67 1066.39 1490.27 1070.26 1482.44 1076.4 1476.17 1082.53 1469.9 1090.47 1465.23 1100.23 1462.14 1109.99 1459.05 1121.04 1457.59 1133.4 1457.77Z" stroke="#AEAEAE" stroke-width="8" stroke-linejoin="round" stroke-miterlimit="10" fill="#AEAEAE" fill-rule="evenodd"/><text fill="#000000" fill-opacity="0" font-family="Arial,Arial_MSFontService,sans-serif" font-size="231.509" x="1044.1" y="1660.33">Spins.jl</text></g></svg>